<?xml version="1.0" encoding="UTF-8" standalone="no"?>
<!-- Created with Inkscape (http://www.inkscape.org/) -->

<svg
   width="48.768017"
   height="56.038074"
   viewBox="0 0 12.903204 14.826741"
   version="1.1"
   id="svg1"
   inkscape:version="1.4 (1:1.4+202410151213+e7c3feb100)"
   sodipodi:docname="steps1.svg"
   inkscape:export-filename="steps1.png"
   inkscape:export-xdpi="96"
   inkscape:export-ydpi="96"
   xmlns:inkscape="http://www.inkscape.org/namespaces/inkscape"
   xmlns:sodipodi="http://sodipodi.sourceforge.net/DTD/sodipodi-0.dtd"
   xmlns="http://www.w3.org/2000/svg"
   xmlns:svg="http://www.w3.org/2000/svg">
  <sodipodi:namedview
     id="namedview1"
     pagecolor="#ffffff"
     bordercolor="#666666"
     borderopacity="1.0"
     inkscape:showpageshadow="2"
     inkscape:pageopacity="0.0"
     inkscape:pagecheckerboard="0"
     inkscape:deskcolor="#d1d1d1"
     inkscape:document-units="mm"
     inkscape:zoom="11.862723"
     inkscape:cx="30.600056"
     inkscape:cy="15.384326"
     inkscape:window-width="1880"
     inkscape:window-height="1010"
     inkscape:window-x="0"
     inkscape:window-y="0"
     inkscape:window-maximized="1"
     inkscape:current-layer="layer1" />
  <defs
     id="defs1" />
  <g
     inkscape:label="Layer 1"
     inkscape:groupmode="layer"
     id="layer1"
     transform="translate(-18.864064,2.3506974)">
    <path
       style="fill:#0000ff;stroke:#000000;stroke-width:0.264583px;stroke-linecap:butt;stroke-linejoin:miter;stroke-opacity:1"
       d="m 20.127971,11.533897 c -1.165412,-1.146592 -0.921017,-2.6351271 -1.0513,-4.4269841 -0.115684,-1.5910783 -0.290309,-4.119633 0.971597,-5.095598 0.838444,-0.6484574 2.351801,-0.7274033 3.179176,-0.064881 1.274652,1.0206793 0.96108,3.1682997 0.973217,4.8012038 0.01935,2.6029881 0.136609,3.1621642 -0.524031,4.6748033 -0.523657,1.198996 -2.423141,1.218798 -3.548659,0.111456 z"
       id="path1"
       sodipodi:nodetypes="sssssss" />
    <path
       style="fill:#0000ff;stroke:#000000;stroke-width:0.22095px;stroke-linecap:butt;stroke-linejoin:miter;stroke-opacity:1"
       d="m 20.469729,4.2913498 h 2.468477"
       id="path2" />
    <path
       style="fill:#0000ff;stroke:#000000;stroke-width:0.22095px;stroke-linecap:butt;stroke-linejoin:miter;stroke-opacity:1"
       d="m 20.469729,4.8205165 h 2.468477"
       id="path3" />
    <path
       style="fill:#0000ff;stroke:#000000;stroke-width:0.22095px;stroke-linecap:butt;stroke-linejoin:miter;stroke-opacity:1"
       d="m 20.469729,5.8788499 h 2.468477"
       id="path4" />
    <path
       style="fill:#0000ff;stroke:#000000;stroke-width:0.22095px;stroke-linecap:butt;stroke-linejoin:miter;stroke-opacity:1"
       d="m 20.469729,5.3496832 h 2.468477"
       id="path5" />
    <path
       style="fill:#0000ff;stroke:#000000;stroke-width:0.22095px;stroke-linecap:butt;stroke-linejoin:miter;stroke-opacity:1"
       d="m 20.469729,6.4080166 h 2.468477"
       id="path6" />
    <path
       style="fill:#0000ff;stroke:#000000;stroke-width:0.22095px;stroke-linecap:butt;stroke-linejoin:miter;stroke-opacity:1"
       d="m 20.469729,3.762183 h 2.468477"
       id="path7" />
    <path
       style="fill:#0000ff;stroke:#000000;stroke-width:0.22095px;stroke-linecap:butt;stroke-linejoin:miter;stroke-opacity:1"
       d="m 20.469729,3.762183 h 2.468477"
       id="path8" />
    <path
       style="fill:#ffffff;stroke:#000000;stroke-width:0.1;stroke-linecap:butt;stroke-linejoin:miter;stroke-dasharray:none;stroke-opacity:1"
       d="m 23.643661,2.3914664 c 0,0 -1.325782,0.5359074 -2.102705,0.5194734 -0.664255,-0.014051 -1.895138,-0.47476 -1.895138,-0.47476 0,0 0.237305,-0.3210374 0.40245,-0.4248649 0.485713,-0.3053707 1.065431,-0.5194899 1.639136,-0.5251218 0.535754,-0.00526 1.084574,0.1780869 1.54004,0.4602408 0.172665,0.1069633 0.416217,0.4450325 0.416217,0.4450325 z"
       id="path9"
       sodipodi:nodetypes="cscsssc" />
    <path
       style="fill:#f9f9f9;stroke:#000000;stroke-width:0.1;stroke-linecap:butt;stroke-linejoin:miter;stroke-dasharray:none;stroke-opacity:1"
       d="m 20.607141,10.957701 c -0.536113,-0.368096 -0.542642,-1.0620728 -0.521042,-1.5718926 0.02159,-0.5098196 0.127807,-1.0606675 0.56635,-1.3300627 0.615162,-0.3778916 1.627583,-0.3778918 2.242746,0 0.438542,0.2693953 0.558549,0.8560187 0.566348,1.3300627 0.0094,0.5756474 -0.101529,1.3055306 -0.634311,1.6323496 -0.609514,0.373889 -1.683979,0.307639 -2.220091,-0.06045 z"
       id="path10"
       sodipodi:nodetypes="zzssssz" />
    <path
       style="fill:#0000ff;stroke:#000000;stroke-width:0.264583px;stroke-linecap:butt;stroke-linejoin:miter;stroke-opacity:1"
       d="m 30.503367,7.8297295 c 1.165412,-1.1465914 0.921017,-2.6351265 1.0513,-4.4269835 0.115684,-1.5910783 0.290309,-4.11963288 -0.971597,-5.0955978 -0.838444,-0.6484574 -2.351801,-0.7274033 -3.179176,-0.064881 -1.274652,1.02067922 -0.96108,3.1682995 -0.973217,4.8012036 -0.01935,2.6029881 -0.136609,3.1621642 0.524031,4.6748027 0.523657,1.1989954 2.423141,1.2187974 3.548659,0.111456 z"
       id="path11"
       sodipodi:nodetypes="sssssss" />
    <path
       style="fill:#0000ff;stroke:#000000;stroke-width:0.22095px;stroke-linecap:butt;stroke-linejoin:miter;stroke-opacity:1"
       d="M 30.161609,0.58718293 H 27.693132"
       id="path12" />
    <path
       style="fill:#0000ff;stroke:#000000;stroke-width:0.22095px;stroke-linecap:butt;stroke-linejoin:miter;stroke-opacity:1"
       d="M 30.161609,1.1163496 H 27.693132"
       id="path13" />
    <path
       style="fill:#0000ff;stroke:#000000;stroke-width:0.22095px;stroke-linecap:butt;stroke-linejoin:miter;stroke-opacity:1"
       d="M 30.161609,2.174683 H 27.693132"
       id="path14" />
    <path
       style="fill:#0000ff;stroke:#000000;stroke-width:0.22095px;stroke-linecap:butt;stroke-linejoin:miter;stroke-opacity:1"
       d="M 30.161609,1.6455163 H 27.693132"
       id="path15" />
    <path
       style="fill:#0000ff;stroke:#000000;stroke-width:0.22095px;stroke-linecap:butt;stroke-linejoin:miter;stroke-opacity:1"
       d="M 30.161609,2.7038497 H 27.693132"
       id="path16" />
    <path
       style="fill:#0000ff;stroke:#000000;stroke-width:0.22095px;stroke-linecap:butt;stroke-linejoin:miter;stroke-opacity:1"
       d="M 30.161609,0.05801616 H 27.693132"
       id="path17" />
    <path
       style="fill:#0000ff;stroke:#000000;stroke-width:0.22095px;stroke-linecap:butt;stroke-linejoin:miter;stroke-opacity:1"
       d="M 30.161609,0.05801616 H 27.693132"
       id="path18" />
    <path
       style="fill:#ffffff;stroke:#000000;stroke-width:0.1;stroke-linecap:butt;stroke-linejoin:miter;stroke-dasharray:none;stroke-opacity:1"
       d="m 26.987677,-1.3127003 c 0,0 1.325782,0.53590732 2.102705,0.51947332 0.664255,-0.014051 1.895138,-0.47475992 1.895138,-0.47475992 0,0 -0.237305,-0.3210375 -0.40245,-0.4248649 -0.485713,-0.3053707 -1.065431,-0.5194899 -1.639136,-0.5251218 -0.535754,-0.00526 -1.084574,0.1780869 -1.54004,0.4602408 -0.172665,0.1069633 -0.416217,0.4450325 -0.416217,0.4450325 z"
       id="path19"
       sodipodi:nodetypes="cscsssc" />
    <path
       style="fill:#f9f9f9;stroke:#000000;stroke-width:0.1;stroke-linecap:butt;stroke-linejoin:miter;stroke-dasharray:none;stroke-opacity:1"
       d="m 30.024197,7.2535338 c 0.536113,-0.368096 0.542642,-1.0620725 0.521042,-1.5718923 -0.02159,-0.5098196 -0.127807,-1.0606675 -0.56635,-1.3300627 -0.615162,-0.3778916 -1.627583,-0.3778918 -2.242746,0 -0.438542,0.2693953 -0.558549,0.8560187 -0.566348,1.3300627 -0.0094,0.5756474 0.101529,1.3055303 0.634311,1.6323493 0.609514,0.3738887 1.683979,0.3076387 2.220091,-0.06045 z"
       id="path20"
       sodipodi:nodetypes="zzssssz" />
  </g>
</svg>
